<svg xmlns="http://www.w3.org/2000/svg" viewBox="0 0 594 316" width="594" height="316">
  <defs>
    <style>
      .land { fill: none; stroke: #0a3a0a; stroke-width: 0.8; }
      .grid-line { stroke: #0a1f0a; stroke-width: 0.3; }
    </style>
  </defs>

  <!-- Background grid -->
  <g class="grid">
    <line class="grid-line" x1="0" y1="79" x2="594" y2="79"/>
    <line class="grid-line" x1="0" y1="158" x2="594" y2="158"/>
    <line class="grid-line" x1="0" y1="237" x2="594" y2="237"/>
    <line class="grid-line" x1="148" y1="0" x2="148" y2="316"/>
    <line class="grid-line" x1="297" y1="0" x2="297" y2="316"/>
    <line class="grid-line" x1="445" y1="0" x2="445" y2="316"/>
  </g>

  <!-- Simplified continent outlines -->
  <!-- North America -->
  <path class="land" d="M 50,30 L 70,25 90,28 110,22 130,30 140,40 150,55 145,70 148,80 155,90 150,100 140,105 130,100 120,105 110,110 100,115 90,120 80,130 75,140 70,135 65,125 60,110 55,95 45,80 40,60 42,45 Z"/>
  <!-- Central America -->
  <path class="land" d="M 90,120 L 95,130 100,140 105,150 108,155 112,160 Z"/>
  <!-- South America -->
  <path class="land" d="M 112,160 L 120,165 130,175 135,190 140,210 138,230 132,250 125,265 118,275 110,278 105,270 100,255 98,240 100,220 105,200 108,180 110,170 Z"/>
  <!-- Europe -->
  <path class="land" d="M 260,30 L 270,28 280,32 290,30 300,35 295,45 290,55 285,60 275,58 268,62 265,55 270,48 268,40 Z"/>
  <!-- British Isles -->
  <path class="land" d="M 252,35 L 256,32 258,38 254,42 Z"/>
  <!-- Scandinavia -->
  <path class="land" d="M 280,15 L 285,12 290,18 292,25 288,30 282,28 Z"/>
  <!-- Africa -->
  <path class="land" d="M 265,80 L 280,78 295,82 305,90 310,105 312,120 310,140 305,160 298,180 290,195 280,205 270,200 262,190 258,175 255,155 252,135 250,115 252,100 255,90 Z"/>
  <!-- Middle East -->
  <path class="land" d="M 310,65 L 325,60 340,65 345,75 340,80 330,82 320,78 312,72 Z"/>
  <!-- Russia/Central Asia -->
  <path class="land" d="M 300,20 L 330,18 360,15 390,18 420,20 450,22 470,28 460,35 440,38 420,40 400,38 380,42 360,40 340,38 320,35 305,32 Z"/>
  <!-- India -->
  <path class="land" d="M 365,75 L 380,72 390,80 395,95 388,110 380,120 370,115 362,105 360,90 Z"/>
  <!-- Southeast Asia -->
  <path class="land" d="M 400,80 L 415,75 425,82 430,95 425,105 420,115 412,108 405,95 Z"/>
  <!-- China/East Asia -->
  <path class="land" d="M 420,35 L 445,38 465,42 480,50 490,60 485,70 475,75 460,72 445,68 430,65 420,60 415,50 Z"/>
  <!-- Japan -->
  <path class="land" d="M 500,45 L 505,42 508,50 510,60 506,65 502,58 Z"/>
  <!-- Indonesia -->
  <path class="land" d="M 430,120 L 440,118 450,122 460,120 465,125 455,128 445,130 435,128 Z"/>
  <!-- Australia -->
  <path class="land" d="M 460,180 L 480,175 500,178 515,185 520,200 515,215 505,225 490,228 475,225 462,215 458,200 Z"/>
  <!-- New Zealand -->
  <path class="land" d="M 535,225 L 538,222 540,230 538,238 535,232 Z"/>
</svg>
